# xmcd
#
# Track frame offsets: 
#        150
#        15870
#        33337
#        49596
#        63534
#        79680
#        96151
#        107755
#        125805
#        146356
#
# Disc length: 2187 seconds
#
# Revision: 1
# Processed by: cddbd v1.5.2PL0 Copyright (c) Steve Scherf et al.
# Submitted via: ExactAudioCopy v1.1
#
DISCID=7b08890a
DTITLE=Asleep at the Wheel - Snapshot
DYEAR=2013
DGENRE=Western Swing
TTITLE0=Boogie Back to Texas
TTITLE1=The Letter (That Johnny Walker Read)
TTITLE2=Dance With Who Brung Ya
TTITLE3=Hot Like That
TTITLE4=Am I Right (or Amarillo)
TTITLE5=Last Meal
TTITLE6=Hang Up My Spurs and Saddle
TTITLE7=Texas Me and You
TTITLE8=Bump Bounce Boogie
TTITLE9=Cotton Eyed Joe
EXTD=
EXTT0=
EXTT1=
EXTT2=
EXTT3=
EXTT4=
EXTT5=
EXTT6=
EXTT7=
EXTT8=
EXTT9=
PLAYORDER=
